<svg id="Layer_1" data-name="Layer 1" xmlns="http://www.w3.org/2000/svg" viewBox="0 0 50 50"><defs><style>.cls-1{fill:#fff;}</style></defs><path class="cls-1" d="M22.05,21.37l-1,2.81h2l-1-2.81Z"/><path class="cls-1" d="M25,11.5c-8.12,0-14.69,5.2-14.69,11.62,0,4.17,2.78,7.83,7,9.88C17,34.15,16.16,37.16,16,37.8c-.2.8.29.79.62.58l5.65-3.85a18.86,18.86,0,0,0,2.73.2c8.12,0,14.69-5.2,14.69-11.61S33.12,11.5,25,11.5ZM17.77,26.31a.72.72,0,0,1-.71.71H16.9a.71.71,0,0,1-.5-.21.69.69,0,0,1-.21-.5V21.16h-1.4a.73.73,0,1,1,0-1.46h4.3a.73.73,0,0,1,0,1.46H17.77Zm7,.67a.7.7,0,0,1-.9-.43l-.37-1H20.6l-.36,1a.71.71,0,0,1-1.34-.48L21,20.43a1,1,0,0,1,0-.1,1,1,0,0,1,1-.74,1.05,1.05,0,0,1,1,.62h0l2.15,5.85A.71.71,0,0,1,24.8,27Zm4.61,0H26.49a.67.67,0,0,1-.66-.66.53.53,0,0,1,0-.13s0-.08,0-.13V20.39a.79.79,0,0,1,.79-.8.8.8,0,0,1,.8.8v5.25h2a.67.67,0,1,1,0,1.33Zm6.25-.09a.71.71,0,0,1-1-.14L32.56,24l-.45.45v1.81a.8.8,0,0,1-1.59,0V20.39a.8.8,0,1,1,1.59,0v2.06L34.6,20a.7.7,0,1,1,1,1l-2,2,2.23,2.92A.72.72,0,0,1,35.66,26.88Z"/></svg>